<svg width="220" height="30" viewBox="0 0 220 37" fill="none" xmlns="http://www.w3.org/2000/svg">
<mask id="path-1-inside-1_132_4" fill="white">
<ellipse cx="16.6667" cy="20" rx="16.6667" ry="16.6667"/>
</mask>
<path d="M7.33333 20C7.33333 14.8453 11.512 10.6666 16.6667 10.6666V62.6666C40.2308 62.6666 59.3333 43.5641 59.3333 20H7.33333ZM16.6667 10.6666C21.8213 10.6666 26 14.8453 26 20H-26C-26 43.5641 -6.89749 62.6666 16.6667 62.6666V10.6666ZM26 20C26 25.1546 21.8213 29.3333 16.6667 29.3333V-22.6667C-6.89749 -22.6667 -26 -3.56417 -26 20H26ZM16.6667 29.3333C11.512 29.3333 7.33333 25.1546 7.33333 20H59.3333C59.3333 -3.56417 40.2308 -22.6667 16.6667 -22.6667V29.3333Z" fill="#52CC7A" mask="url(#path-1-inside-1_132_4)"/>
<mask id="path-3-inside-2_132_4" fill="white">
<ellipse cx="203.333" cy="16.6667" rx="16.6667" ry="16.6667"/>
</mask>
<path d="M194 16.6667C194 11.512 198.179 7.33334 203.333 7.33334V59.3333C226.897 59.3333 246 40.2308 246 16.6667H194ZM203.333 7.33334C208.488 7.33334 212.667 11.512 212.667 16.6667H160.667C160.667 40.2308 179.769 59.3333 203.333 59.3333V7.33334ZM212.667 16.6667C212.667 21.8213 208.488 26 203.333 26V-26C179.769 -26 160.667 -6.89748 160.667 16.6667H212.667ZM203.333 26C198.179 26 194 21.8213 194 16.6667H246C246 -6.89748 226.897 -26 203.333 -26V26Z" fill="#52CC7A" mask="url(#path-3-inside-2_132_4)"/>
<rect x="26.6667" y="16.6667" width="166.667" height="6.66667" fill="#52CC7A"/>
</svg>
