<svg width="18" height="18" viewBox="0 0 18 18" fill="none" xmlns="http://www.w3.org/2000/svg">
<g clip-path="url(#clip0_53_6)">
<path d="M16.4039 0.679199H1.5975C1.09035 0.679199 0.679222 1.09033 0.679222 1.59748V16.4039C0.679222 16.911 1.09035 17.3222 1.5975 17.3222H16.4039C16.9111 17.3222 17.3222 16.911 17.3222 16.4039V1.59748C17.3222 1.09033 16.9111 0.679199 16.4039 0.679199Z" fill="#3D5A98"/>
<path d="M12.1613 17.3208V10.876H14.3241L14.6475 8.36439H12.1613V6.76127C12.1613 6.03424 12.3638 5.53783 13.4058 5.53783H14.7361V3.28783C14.0919 3.22069 13.4445 3.18877 12.7969 3.19221C10.8816 3.19221 9.5625 4.35939 9.5625 6.51236V8.36439H7.39969V10.876H9.5625V17.3208H12.1613Z" fill="white"/>
</g>
<defs>
<clipPath id="clip0_53_6">
<rect width="18" height="18" fill="white"/>
</clipPath>
</defs>
</svg>
