<svg width="17" height="17" viewBox="0 0 17 17" fill="none" xmlns="http://www.w3.org/2000/svg">
<path d="M14.4 0H1.8C0.81 0 0 0.81 0 1.8V14.4C0 15.3909 0.81 16.2 1.8 16.2H14.4C15.39 16.2 16.2 15.3909 16.2 14.4V1.8C16.2 0.81 15.39 0 14.4 0ZM8.0856 13.0707C9.40757 13.0705 10.6753 12.5451 11.61 11.6103C12.5447 10.6754 13.0698 9.40757 13.0698 8.0856C13.0698 7.7814 13.0311 7.488 12.9771 7.2H14.4V13.6944C14.4 13.7762 14.3838 13.8572 14.3525 13.9327C14.3211 14.0082 14.2751 14.0768 14.2172 14.1345C14.1592 14.1922 14.0904 14.2379 14.0148 14.2689C13.9391 14.3 13.8581 14.3158 13.7763 14.3154H2.4237C2.34192 14.3158 2.26088 14.3 2.18522 14.2689C2.10957 14.2379 2.04079 14.1922 1.98284 14.1345C1.92489 14.0768 1.8789 14.0082 1.84753 13.9327C1.81615 13.8572 1.8 13.7762 1.8 13.6944V7.2H3.1941C3.1392 7.488 3.1005 7.7814 3.1005 8.0856C3.10074 9.40766 3.62603 10.6755 4.56086 11.6103C5.4957 12.5452 6.76354 13.0705 8.0856 13.0707ZM4.9707 8.0856C4.9707 7.67655 5.05127 7.2715 5.20781 6.89358C5.36435 6.51566 5.59379 6.17228 5.88303 5.88303C6.17228 5.59379 6.51566 5.36435 6.89358 5.20781C7.2715 5.05127 7.67655 4.9707 8.0856 4.9707C8.49465 4.9707 8.8997 5.05127 9.27762 5.20781C9.65554 5.36435 9.99892 5.59379 10.2882 5.88303C10.5774 6.17228 10.8069 6.51566 10.9634 6.89358C11.1199 7.2715 11.2005 7.67655 11.2005 8.0856C11.2005 8.91172 10.8723 9.70401 10.2882 10.2882C9.70401 10.8723 8.91172 11.2005 8.0856 11.2005C7.25948 11.2005 6.46719 10.8723 5.88303 10.2882C5.29888 9.70401 4.9707 8.91172 4.9707 8.0856ZM13.7763 4.5H12.3228C12.1578 4.49952 11.9996 4.43376 11.8829 4.31706C11.7662 4.20037 11.7005 4.04223 11.7 3.8772V2.4219C11.7 2.0781 11.979 1.8 12.3219 1.8H13.7754C14.121 1.8 14.4 2.0781 14.4 2.4219V3.8763C14.4 4.2192 14.121 4.5 13.7763 4.5Z" fill="#3D5A98"/>
</svg>
