<svg width="18" height="18" viewBox="0 0 18 18" fill="none" xmlns="http://www.w3.org/2000/svg">
<path d="M9.3825 1.125C6.1425 1.125 2.9475 3.285 2.9475 6.7725C2.9475 8.98875 4.19625 10.26 4.95 10.26C5.265 10.26 5.445 9.39375 5.445 9.14625C5.445 8.85375 4.7025 8.22375 4.7025 7.00875C4.7025 4.46625 6.6375 2.6775 9.135 2.6775C11.2838 2.6775 12.87 3.90375 12.87 6.1425C12.87 7.81875 12.195 10.9575 10.0238 10.9575C9.23625 10.9575 8.56125 10.395 8.56125 9.57375C8.56125 8.38125 9.39375 7.2225 9.39375 5.99625C9.39375 3.90375 6.435 4.28625 6.435 6.80625C6.435 7.335 6.5025 7.92 6.73875 8.40375C6.3 10.2825 5.41125 13.0725 5.41125 15.0075C5.41125 15.6038 5.50125 16.1888 5.5575 16.785C5.67 16.9088 5.61375 16.8975 5.77125 16.83C7.3575 14.6475 7.30125 14.2312 8.02125 11.3737C8.415 12.1163 9.41625 12.51 10.2038 12.51C13.5563 12.51 15.0638 9.2475 15.0638 6.3C15.0638 3.16125 12.3525 1.125 9.3825 1.125Z" fill="#3D5A98"/>
</svg>
