<svg xmlns="http://www.w3.org/2000/svg" xmlns:xlink="http://www.w3.org/1999/xlink" width="19" height="17" viewBox="0 0 19 17"><defs><path id="rtkxa" d="M1211.73 26.1a.91.91 0 0 1-1.32 0l-1.54-1.57a3.36 3.36 0 0 1-4.13-.57 3.57 3.57 0 0 1 0-4.97 3.38 3.38 0 0 1 4.86 0 3.58 3.58 0 0 1 .58 4.19l1.55 1.58c.36.37.36.97 0 1.35zm-2.74-6.49a2.53 2.53 0 0 0-3.64 0c-1 1.03-1 2.7 0 3.72a2.53 2.53 0 0 0 3.64 0c1-1.02 1-2.7 0-3.72zm1.14-2.95l-.1 2.27a3.83 3.83 0 0 0-2.25-1.34l2.33-.98.06-1.39-.05 1.44zm-4.75-.94c-.22.08-.42-.1-.62-.23l-.38-.15c-.24.05-.62.33-.76.45l2.53.98-3.05 1.29-3.26-1.38 2.44-.97a2.05 2.05 0 0 0-.67-.37h-.01c-.3-.03-.63.51-.97.38l-.12-.04-1.6.6-2.88-1.21 3.27-.96 1.33.52.14-.63-.47-.18.56-.16.01-.03c.06-.18.22-.6.61-.43a.88.88 0 0 1 .13.07l.1.07.02.01.04.04 1.33-.39 1.19.35a2 2 0 0 1 .1-.08l.03-.01a1 1 0 0 1 .1-.06c.37-.16.53.2.6.39l.48.14-.4.16.03.09-.01-.03.12.54 1.2-.48 3.63 1.06-3.06 1.3zm-3.24-1.21l-.96-.36-.16.42a.35.35 0 0 0-.01.15c.1-.07.23-.15.47-.18.23-.02.46.07.67.2zm.48 1l-.05.08.2-.08zm.77 0h-.49l.61.23zm1.59-.94a9.89 9.89 0 0 0-.2-.52l-.87.33-.04.03-.02.33c.2-.13.45-.22.68-.2a.9.9 0 0 1 .37.12l.1-.03-.02-.06zm-1.8 4.96l.72-.3a3.98 3.98 0 0 0 2.28 6.06v.1l-3.2 1.61-6.67-3.54-.25-6.71-.06-1.58.04.05.05 1.39 6.88 2.9v-1.45h.2zm-3.37-1.2l-.93-.4.01 6.89.93.49z"/></defs><g><g transform="translate(-1195 -12)"><use fill="#fff" xlink:href="#rtkxa"/></g></g></svg>